<?xml version="1.0" encoding="UTF-8" standalone="no"?>
<svg xmlns:dc="http://purl.org/dc/elements/1.1/" xmlns:cc="http://creativecommons.org/ns#" xmlns:rdf="http://www.w3.org/1999/02/22-rdf-syntax-ns#" xmlns:svg="http://www.w3.org/2000/svg" xmlns="http://www.w3.org/2000/svg" width="1081.8796mm" height="474.66403mm" viewBox="0 0 1081.8796 474.66403" version="1.1" id="svg60">
  <defs id="defs54"/>
  <metadata id="metadata57">
    <rdf:RDF>
      <cc:Work rdf:about="">
        <dc:format>image/svg+xml</dc:format>
        <dc:type rdf:resource="http://purl.org/dc/dcmitype/StillImage"/>
        <dc:title/>
      </cc:Work>
    </rdf:RDF>
  </metadata>
  <g id="layer1" transform="translate(799.47399,431.13982)">
    <path style="fill:#ffffff;stroke-width:0.26458332" d="m -283.6504,43.451064 c -14.00289,-0.34663 -19.38531,-1.49143 -29.10417,-6.19017 -4.67725,-2.26131 -6.95714,-3.84177 -12.11162,-8.39589 -5.9386,-5.2469 -6.81135,-6.32537 -15.09522,-18.65326 -5.33609,-7.9410896 -7.02553,-10.95516962 -9.9137,-17.6868096 -2.0375,-4.7489004 -2.95751,-7.7396404 -4.30585,-13.9976204 -2.40644,-11.16883 -3.90684,-21.57979 -4.8618,-33.73438 -0.3601,-4.58393 -0.86778,-10.89422 -1.12808,-14.02291 -0.39595,-4.7588 -0.47252,-8.67249 -0.46847,-23.9448 0.005,-16.669334 0.0685,-19.360194 0.73689,-30.956274 0.40259,-6.985 0.90284,-14.8431 1.11165,-17.4625 0.5067,-6.35572 1.85195,-21.68086 2.50838,-28.57499 1.03513,-10.87149 1.16245,-13.13166 0.81121,-14.40129 -0.43799,-1.58335 -1.54146,-2.5595 -3.30782,-2.92619 -1.06968,-0.22209 -9.2411,-0.16039 -32.99661,0.24905 -17.36611,0.29935 -49.37461,0.8364 -71.13,1.19348 -21.75537,0.35709 -41.51974,0.71266 -43.92083,0.79018 -2.4011,0.0775 -8.1161,0.20442 -12.7,0.28197 -30.96156,0.52374 -38.94041,0.70625 -40.31036,0.92215 -4.93357,0.77745 -6.23174,3.15566 -6.6436,12.17086 -0.28189,6.16978 -0.42325,7.79403 -1.61215,18.52082 -2.24688,20.27235 -2.5212,21.8744 -4.76593,27.83467 -1.43284,3.80452 -2.90303,6.62924 -4.53767,8.71847 -1.2486,1.59589 -8.44955,8.34078 -10.90277,10.21231 -2.02961,1.54834 -3.9428,2.23348 -6.23689,2.23348 -2.81149,0 -4.61944,-0.78473 -6.76736,-2.93722 -2.60682,-2.61242 -4.18792,-5.58202 -6.84521,-12.8565 -0.89678,-2.45499 -1.89997,-4.10102 -2.49947,-4.10102 -0.67035,0 -1.28435,1.06744 -2.56762,4.46384 -1.46855,3.88678 -2.29902,6.92589 -3.15441,11.54343 -0.32348,1.74625 -0.8748,3.94893 -1.22518,4.89479 -1.81587,4.902314 -6.44555,8.705664 -12.09002,9.932194 -7.50789,1.63145 -16.90535,-1.87684 -21.18012,-7.907074 -1.56596,-2.20898 -2.20095,-3.53028 -4.95804,-10.31671 -3.44532,-8.48053 -4.64343,-10.54894 -5.84361,-10.08838 -0.78923,0.30287 -1.27111,1.76771 -2.34471,7.1274 -0.9206,4.59581 -1.71385,7.04191 -2.86584,8.83711 -3.11414,4.85296 -10.03032,8.262654 -17.61675,8.685004 -3.17421,0.17672 -5.75024,-0.18656 -8.99353,-1.26828 -5.84946,-1.950934 -10.17962,-5.993904 -13.43268,-12.541864 -1.51267,-3.0448 -2.31883,-5.79239 -2.86248,-9.75606 -1.01493,-7.39971 -1.53129,-9.41763 -2.5055,-9.79146 -0.68303,-0.2621 -1.14165,0.12279 -4.10741,3.4472 -3.13693,3.51629 -7.99631,8.03323 -10.25539,9.53273 -3.59043,2.38318 -7.26065,3.01646 -11.42961,1.97212 -6.51782,-1.63274 -10.17568,-5.18758 -13.2105,-12.8384 -0.93033,-2.34535 -1.95175,-6.24541 -2.3635,-9.02446 -0.29819,-2.01258 -1.74357,-16.33477 -2.01597,-19.97607 -0.34638,-4.63026 -1.19329,-12.33777 -1.46001,-13.28707 -0.53263,-1.89579 -1.97862,-3.11322 -4.32132,-3.63821 -2.22529,-0.49871 -15.57144,-1.60723 -22.52542,-1.87094 -9.36174,-0.35505 -11.0464,-0.70943 -13.38156,-2.81493 -2.18825,-1.97305 -2.72072,-4.81367 -1.39936,-7.46527 0.79299,-1.59134 2.05896,-2.62777 4.29156,-3.51343 1.4699,-0.58309 1.74889,-0.59526 17.63311,-0.77002 11.48085,-0.12631 16.44507,-0.27067 17.19792,-0.50017 2.64728,-0.80698 3.53299,-1.93503 4.88714,-6.22432 1.2677,-4.01545 2.37961,-6.12249 4.15334,-7.8704 2.04329,-2.01356 2.00439,-1.98872 14.08392,-8.99644 11.14714,-6.46684 14.09882,-8.04847 16.91526,-9.06384 3.94898,-1.42367 16.40147,-4.61023 21.07908,-5.39408 3.30169,-0.5533 21.76086,-2.88925 28.4427,-3.59937 4.6283,-0.49186 23.44257,-1.03693 28.97188,-0.83933 5.7467,0.20536 19.59701,2.27748 26.19375,3.91879 8.05197,2.00337 13.0922,3.66154 18.78542,6.18014 8.0047,3.54116 10.23184,4.96136 14.15815,9.02861 2.95111,3.057 4.60766,5.3393 6.21755,8.56613 2.43432,4.87928 4.27424,6.55508 7.82494,7.12689 3.86663,0.6227 30.4341,-1.53839 36.22539,-2.94671 2.61184,-0.63514 4.25797,-1.97914 4.72956,-3.86149 0.13507,-0.53909 0.31102,-3.12328 0.39095,-5.74265 0.24985,-8.18383 0.62965,-10.31735 4.92215,-27.64896 1.42362,-5.74807 3.45313,-14.26104 4.50998,-18.91771 1.05688,-4.65666 2.33453,-9.77106 2.83922,-11.36533 0.50469,-1.5943 3.27414,-8.79758 6.15434,-16.00729 2.8802,-7.20974 7.40836,-18.64503 10.06261,-25.41175 5.36887,-13.68743 5.93844,-14.92502 10.16775,-22.09271 1.63142,-2.7649 3.60524,-6.15818 4.38623,-7.54062 7.08118,-12.53414 7.15045,-12.63423 15.09917,-21.82813 3.91676,-4.5303 5.91537,-6.55222 12.94175,-13.09269 2.10804,-1.96226 5.66978,-5.45161 7.91506,-7.75412 4.09927,-4.20383 6.7659,-6.47816 10.20519,-8.70389 8.93098,-5.77967 20.10283,-12.59152 23.8125,-14.51936 3.22276,-1.67478 15.75525,-7.13941 23.02364,-10.03919 6.09947,-2.4334 24.7817,-8.20293 29.89303,-9.23168 3.21244,-0.64656 19.26484,-3.0194 24.2094,-3.57857 13.96095,-1.57885 34.69145,-2.74735 43.39164,-2.44586 6.82932,0.23667 17.03628,1.59959 25.4,3.39167 5.96635,1.27838 9.51061,1.95188 12.30312,2.33788 5.91754,0.81799 8.41492,1.54895 16.27188,4.76263 3.1287,1.27971 8.48651,3.3096 11.90625,4.51089 7.87106,2.76492 9.93103,3.67987 18.23881,8.10106 3.72036,1.97988 7.89541,4.19579 9.27786,4.92424 5.95619,3.13849 7.13213,3.80569 9.2965,5.27465 1.25677,0.85297 3.45943,2.56583 4.89479,3.80633 4.35092,3.76026 7.71025,6.48289 11.73787,9.51322 6.75852,5.08503 11.30414,8.90818 17.33021,14.57571 9.50796,8.94231 13.57381,13.53767 22.20823,25.10041 6.82339,9.13757 7.53776,10.17154 11.97332,17.33021 6.86932,11.08655 8.0777,13.15974 14.57327,25.00313 2.35532,4.29442 11.173314,21.83818 11.173314,22.22973 0,0.0416 0.46378,1.06961 1.03063,2.28442 1.51153,3.23939 4.2301,10.35851 11.8565,31.04835 4.11885,11.17412 3.98458,10.78433 7.52073,21.82812 1.63629,5.11027 3.34235,9.92931 3.87596,10.94835 1.15663,2.20877 2.65962,3.41556 4.78565,3.84252 1.96996,0.39563 36.25411,0.39942 39.09479,0.004 2.51534,-0.34985 4.91609,-1.41374 6.28538,-2.78541 0.95727,-0.95892 1.47051,-1.9079 3.96619,-7.33392 2.2896,-4.97795 5.69283,-9.08166 10.3518702,-12.48275 6.62094,-4.83317 12.5775,-7.47138 25.0319398,-11.08678 11.52986,-3.34703 18.99087,-5.10056 23.6514,-5.55874 2.65813,-0.2613 13.7565,-1.16469 18.38854,-1.49677 3.90961,-0.2803 16.12265,-0.19304 20.50521,0.14652 0.72763,0.0564 3.58513,0.17283 6.35,0.25879 11.87651,0.36923 24.061046,1.21579 30.956246,2.15083 5.35969,0.72681 13.71158,2.99468 17.59479,4.77768 1.0914,0.50112 4.00844,2.02208 6.48229,3.37987 2.47385,1.35782 6.12333,3.32666 8.10996,4.37523 5.81297,3.0682 6.77748,4.02217 12.5087,12.37222 3.32954,4.85091 4.33261,5.96664 6.17982,6.8737 l 1.51194,0.74249 h 12.7 c 6.985,0 31.03565,-0.0595 53.44585,-0.1323 l 40.7458,-0.1323 1.5875,0.6313 c 4.5519,1.81009 5.7641,6.575 2.5052,9.84798 -1.4625,1.46894 -3.2923,2.21559 -6.3823,2.60437 -1.3944,0.17544 -19.8594,0.37473 -50.0979,0.5407 -33.79495,0.18548 -48.20106,0.35005 -48.9479,0.55918 -3.51211,0.98337 -4.04323,2.93651 -2.87028,10.55502 0.71591,4.64992 0.75327,5.3316 0.74684,13.62605 -0.007,9.27043 -0.21995,12.11651 -1.34483,17.99167 -1.34964,7.04911 -2.81514,11.16541 -5.64031,15.84264 -2.56254,4.24241 -5.43411,6.37868 -10.18219,7.57489 -7.67935,1.93468 -14.73179,-1.55602 -21.653,-10.71753 -1.31924,-1.74625 -2.69986,-3.50242 -3.06806,-3.90261 -1.82983,-1.98874 -2.60765,-0.12025 -3.22172,7.73907 -0.34925,4.46987 -0.64143,6.37955 -1.43883,9.40427 -1.18393,4.49098 -3.13201,7.86812 -6.4901,11.25111 -4.04265,4.07265 -8.2401,6.05396 -12.846,6.06362 -4.53432,0.0101 -7.934526,-1.75546 -13.182516,-6.84276 -4.12019,-3.99402 -5.82469,-6.59038 -8.24748,-12.56292 -0.76587,-1.88786 -1.53721,-2.86528 -2.09288,-2.65205 -0.54224,0.20806 -1.11014,1.69328 -2.12188,5.549 -3.23461,12.32744 -6.13066,18.42219 -10.81379,22.75808 -7.92498,7.33729 -20.85041,5.08016 -28.48284,-4.97388 -2.98204,-3.92819 -5.1072,-8.44632 -7.12087,-15.13887 -1.14959,-3.82072 -1.81046,-5.37126 -2.55161,-5.98636 -0.39558,-0.32829 -0.52089,-0.28017 -1.07966,0.41458 -0.34766,0.43227 -0.85656,1.38128 -1.13096,2.10888 -2.31019,6.12648 -5.17427,9.69233 -9.44978,11.76507 -2.17038,1.05222 -3.7414,1.38351 -6.58389,1.38848 -2.94818,0.005 -5.1476598,-0.54716 -7.9374998,-1.99326 -3.50788,-1.81825 -8.86825,-7.49753 -12.10472,-12.82486 -3.08173,-5.07262 -7.7698802,-16.41552 -9.3459502,-22.61222 -1.57457,-6.1909 -3.5197,-16.92961 -4.99592,-27.58154 -1.00653,-7.2628 -1.57631,-8.62091 -4.00606,-9.54883 -1.5228,-0.58155 0.85403,-0.61301 -91.520304,1.2109 -14.55208,0.28733 -28.54192,0.58245 -31.08854,0.65582 -2.54661,0.0734 -7.84489,0.19805 -11.77396,0.27707 -12.25349,0.24642 -41.04132,0.89649 -46.16979,1.04259 -2.69213,0.0767 -8.70479,0.21037 -13.36146,0.29708 -12.50288,0.23278 -14.21934,0.4895 -15.59541,2.33262 -0.9471,1.26855 -0.76163,3.87377 0.55771,7.83378 1.1466,3.4415 1.63076,6.11478 2.32437,12.83359 0.39767,3.85203 1.6937,11.57244 3.3532,19.97476 0.77065,3.90196 1.81541,8.93574 10.18651,49.080204 4.23661,20.31723 4.43613,21.40741 4.98771,27.25209 0.23344,2.47385 0.65281,6.52198 0.93189,8.99583 0.98975,8.77279 2.38215,30.96292 2.38215,37.96305 0,8.08694 -1.33554,14.60725 -5.13654,25.07716038 -2.46761,6.79712002 -4.166,10.69008962 -6.28346,14.40263962 -6.22128,10.90782 -10.15143,14.92896 -20.41342,20.88595 -9.0809,5.27134 -10.53365,5.75553 -22.93533,7.64368 -6.55032,0.99729 -11.23368,1.23645 -19.97604,1.02002 z" id="path100"/>
    <path style="fill:#000000;stroke-width:0.26458332" d="m -283.6504,43.451032 c -14.00289,-0.34663 -19.38533,-1.49143 -29.10417,-6.19016 -4.67725,-2.26131 -6.95716,-3.84178 -12.11164,-8.39589 -5.93858,-5.2469 -6.81133,-6.32537 -15.0952,-18.65326 -5.33611,-7.9410998 -7.02553,-10.95517984 -9.91372,-17.6868098 -2.03748,-4.7489002 -2.95749,-7.7396502 -4.30583,-13.9976202 -2.40644,-11.16883 -3.90686,-21.57979 -4.8618,-33.73438 -0.36012,-4.58391 -0.86778,-10.89422 -1.1281,-14.02292 -0.39593,-4.75877 -0.4725,-8.67248 -0.46845,-23.94479 0.005,-16.669332 0.0685,-19.360192 0.73687,-30.956252 0.40259,-6.985 0.90286,-14.84312 1.11167,-17.4625 0.50668,-6.35574 1.85195,-21.68088 2.50836,-28.575 1.03515,-10.87149 1.16247,-13.13166 0.81123,-14.40129 -0.43799,-1.58335 -1.54146,-2.5595 -3.30782,-2.92619 -1.06968,-0.22209 -9.2411,-0.16039 -32.99661,0.24905 -17.36613,0.29935 -49.37463,0.8364 -71.13,1.19348 -21.75536,0.35709 -41.51974,0.71266 -43.92083,0.79018 -2.4011,0.0775 -8.1161,0.20442 -12.7,0.28197 -30.96157,0.52374 -38.94042,0.70625 -40.31036,0.92215 -4.93358,0.77745 -6.23175,3.15566 -6.6436,12.17086 -0.28189,6.16977 -0.42326,7.79404 -1.61216,18.52083 -2.24687,20.27233 -2.52119,21.8744 -4.76592,27.83465 -1.43285,3.80452 -2.90303,6.62926 -4.53768,8.71849 -1.2486,1.59587 -8.44955,8.34076 -10.90277,10.21229 -2.02961,1.54834 -3.94279,2.23348 -6.23689,2.23348 -2.81148,0 -4.61944,-0.78471 -6.76735,-2.9372 -2.60683,-2.61244 -4.18793,-5.58202 -6.84522,-12.8565 -0.89678,-2.45501 -1.89997,-4.10104 -2.49947,-4.10104 -0.67034,0 -1.28434,1.06744 -2.56762,4.46384 -1.46854,3.88678 -2.29902,6.92589 -3.15441,11.54345 -0.32348,1.74625 -0.8748,3.94891 -1.22518,4.89479 -1.81587,4.902282 -6.44554,8.705642 -12.09001,9.932172 -7.50789,1.63145 -16.90536,-1.87685 -21.18013,-7.907052 -1.56596,-2.209 -2.20094,-3.5303 -4.95803,-10.31673 -3.44532,-8.48053 -4.64343,-10.54894 -5.84361,-10.08838 -0.78923,0.30287 -1.27112,1.76771 -2.34472,7.12742 -0.92059,4.59579 -1.71384,7.04189 -2.86583,8.83711 -3.11415,4.85296 -10.03032,8.262622 -17.61675,8.684982 -3.17422,0.17671 -5.75024,-0.18656 -8.99353,-1.26826 -5.84946,-1.950932 -10.17963,-5.993922 -13.43269,-12.541882 -1.51267,-3.0448 -2.31883,-5.79239 -2.86248,-9.75606 -1.01493,-7.39971 -1.53129,-9.41763 -2.5055,-9.79146 -0.68303,-0.2621 -1.14165,0.12279 -4.10741,3.4472 -3.13693,3.51629 -7.99631,8.03325 -10.25539,9.53273 -3.59043,2.3832 -7.26065,3.01646 -11.42961,1.97212 -6.51782,-1.63274 -10.17568,-5.18758 -13.2105,-12.83838 -0.93033,-2.34537 -1.95175,-6.24543 -2.3635,-9.02448 -0.29819,-2.01256 -1.74357,-16.33477 -2.01597,-19.97605 -0.34638,-4.63028 -1.19329,-12.33778 -1.46001,-13.28708 -0.53263,-1.89579 -1.97862,-3.11322 -4.32132,-3.63821 -2.22529,-0.49871 -15.57144,-1.60723 -22.52542,-1.87094 -9.36174,-0.35505 -11.0464,-0.70943 -13.38156,-2.81493 -2.18825,-1.97305 -2.72072,-4.81367 -1.39936,-7.46527 0.79299,-1.59134 2.05896,-2.62777 4.29156,-3.51343 1.4699,-0.58309 1.74889,-0.59526 17.63311,-0.77002 11.48085,-0.12631 16.44507,-0.27067 17.19792,-0.50017 2.64728,-0.80698 3.53299,-1.93503 4.88714,-6.22432 1.2677,-4.01545 2.37961,-6.12249 4.15334,-7.8704 2.04329,-2.01356 2.00439,-1.98872 14.08392,-8.99644 11.14714,-6.46684 14.09882,-8.04847 16.91526,-9.06384 3.94898,-1.42367 16.40147,-4.61023 21.07909,-5.39408 3.30169,-0.5533 21.76086,-2.88925 28.4427,-3.59937 4.6283,-0.49186 23.44256,-1.03693 28.97188,-0.83933 5.7467,0.20536 19.597,2.27748 26.19375,3.91879 8.05196,2.00337 13.09219,3.66154 18.78541,6.18014 8.00471,3.54116 10.23184,4.96136 14.15815,9.02861 2.95111,3.057 4.60766,5.3393 6.21755,8.56613 2.43432,4.87928 4.27424,6.55508 7.82494,7.12689 3.86663,0.6227 30.4341,-1.53839 36.2254,-2.94671 2.61184,-0.63514 4.25797,-1.97914 4.72956,-3.86149 0.13507,-0.53909 0.311,-3.12328 0.39095,-5.74265 0.24985,-8.18383 0.62966,-10.31735 4.92215,-27.64896 1.42362,-5.74807 3.45311,-14.26104 4.50998,-18.91771 1.05688,-4.65666 2.33453,-9.77106 2.83922,-11.36533 0.50469,-1.5943 3.27414,-8.79758 6.15434,-16.00729 2.8802,-7.20974 7.40836,-18.64503 10.06261,-25.41175 5.36887,-13.68743 5.93844,-14.92502 10.16773,-22.09271 1.63142,-2.7649 3.60524,-6.15818 4.38626,-7.54062 7.08117,-12.53414 7.15042,-12.63423 15.09916,-21.82813 3.91676,-4.5303 5.91537,-6.55222 12.94175,-13.09269 2.10802,-1.96226 5.66978,-5.45161 7.91504,-7.75412 4.09927,-4.20383 6.7659,-6.47816 10.20521,-8.70389 8.93099,-5.77967 20.10281,-12.59152 23.8125,-14.51936 3.22276,-1.67478 15.75523,-7.13941 23.02365,-10.03919 6.09946,-2.4334 24.78167,-8.20293 29.89302,-9.23168 3.21244,-0.64656 19.26484,-3.0194 24.20938,-3.57857 13.96095,-1.57885 34.69147,-2.74735 43.39166,-2.44586 6.82932,0.23667 17.03628,1.59959 25.4,3.39167 5.96635,1.27838 9.5106,1.95188 12.30312,2.33788 5.91754,0.81799 8.41492,1.54895 16.27188,4.76263 3.1287,1.27971 8.48651,3.3096 11.90625,4.51089 7.87106,2.76492 9.93103,3.67987 18.23881,8.10106 3.72036,1.97988 7.89541,4.19579 9.27785,4.92424 5.9562,3.13849 7.13214,3.80569 9.29651,5.27465 1.25677,0.85297 3.45943,2.56583 4.89479,3.80633 4.35092,3.76026 7.71025,6.48289 11.73787,9.51322 6.75852,5.08503 11.30414,8.90818 17.33021,14.57571 9.50796,8.94231 13.57381,13.53767 22.20822,25.10041 6.8234,9.13757 7.53777,10.17154 11.97333,17.33021 6.86932,11.08655 8.0777,13.15974 14.57327,25.00313 2.35532,4.29442 11.173302,21.83818 11.173302,22.22973 0,0.0416 0.46379,1.06961 1.03063,2.28442 1.51152,3.23939 4.23011,10.35851 11.85651,31.04835 4.11885,11.17412 3.98457,10.78433 7.52073,21.82812 1.63629,5.11027 3.34235,9.92931 3.87596,10.94835 1.15663,2.20877 2.65962,3.41556 4.78563,3.84252 1.96998,0.39563 36.25413,0.39942 39.09478,0.004 2.51536,-0.34985 4.91609,-1.41374 6.28541,-2.78542 0.95726,-0.95891 1.47048,-1.90789 3.96618,-7.33391 2.2896,-4.97795 5.69281,-9.08166 10.3518801,-12.48275 6.62091,-4.83317 12.5775,-7.47138 25.0319399,-11.08678 11.52985,-3.34703 18.99086,-5.10056 23.65139,-5.55874 2.65814,-0.2613 13.75651,-1.1647 18.38854,-1.49677 3.90962,-0.2803 16.12265,-0.19304 20.50521,0.14652 0.72761,0.0564 3.58511,0.17283 6.35,0.25879 11.87651,0.36923 24.061048,1.21579 30.956248,2.15083 5.35969,0.72681 13.71158,2.99468 17.59479,4.77768 1.09141,0.50112 4.00844,2.02208 6.48229,3.37987 2.47386,1.35782 6.12334,3.32666 8.10996,4.37523 5.81298,3.06819 6.77749,4.02217 12.50871,12.37221 3.32954,4.85092 4.3326,5.96664 6.17982,6.87371 l 1.51193,0.74248 h 12.7 c 6.985,0 31.03563,-0.0595 53.44583,-0.13229 l 40.74584,-0.1323 1.5875,0.6313 c 4.55189,1.81009 5.76405,6.575 2.50523,9.84798 -1.46256,1.46894 -3.29237,2.21559 -6.38236,2.60437 -1.39435,0.17544 -19.85936,0.37473 -50.09787,0.5407 -33.79497,0.18547 -48.20108,0.35005 -48.94792,0.55917 -3.5121,0.98338 -4.04323,2.93651 -2.87028,10.55503 0.71591,4.64991 0.75327,5.33159 0.74684,13.62604 -0.007,9.27044 -0.21995,12.11651 -1.34482,17.99166 -1.34964,7.04911 -2.81514,11.16542 -5.64031,15.84264 -2.56254,4.24241 -5.43412,6.37869 -10.1822,7.57489 -7.67935,1.93469 -14.73179,-1.55601 -21.653,-10.71753 -1.31924,-1.74625 -2.69986,-3.50242 -3.06805,-3.9026 -1.82983,-1.98874 -2.60766,-0.12025 -3.22173,7.73906 -0.34925,4.46987 -0.64143,6.37956 -1.43883,9.40427 -1.18393,4.49099 -3.132,7.86813 -6.49009,11.25112 -4.04265,4.07265 -8.24011,6.05396 -12.846,6.06361 -4.53432,0.01 -7.934538,-1.75546 -13.182518,-6.84276 -4.1202,-3.99402 -5.8247,-6.59037 -8.24751,-12.56292 -0.76584,-1.88785 -1.53718,-2.86528 -2.09288,-2.65205 -0.54222,0.20807 -1.11012,1.69328 -2.12186,5.549 -3.23463,12.32744 -6.13066,18.4222 -10.81378,22.75808 -7.92499,7.3373 -20.85041,5.08016 -28.48285,-4.97387 -2.98204,-3.92819 -5.10722,-8.44632 -7.12086,-15.13888 -1.14959,-3.82071 -1.81047,-5.37125 -2.55164,-5.98635 -0.39556,-0.3283 -0.52086,-0.28017 -1.07964,0.41457 -0.34766,0.43228 -0.85658,1.38129 -1.13096,2.10889 -2.31018,6.12648 -5.17429,9.69232 -9.44978,11.76507 -2.17037,1.05222 -3.74139,1.3835 -6.58391,1.38848 -2.94815,0.005 -5.1476299,-0.54716 -7.9374999,-1.99327 -3.50785,-1.81824 -8.86823,-7.49752 -12.10469,-12.82485 -3.08174,-5.07262 -7.7699101,-16.41552 -9.3459601,-22.61222 -1.57456,-6.19091 -3.5197,-16.9296 -4.99591,-27.58154 -1.00653,-7.26279 -1.57631,-8.6209 -4.00606,-9.54882 -1.52281,-0.58155 0.854,-0.61301 -91.520302,1.2109 -14.55208,0.28733 -28.54193,0.58245 -31.08854,0.65582 -2.54661,0.0734 -7.8449,0.19804 -11.77396,0.27707 -12.25349,0.24641 -41.04132,0.89649 -46.16979,1.04259 -2.69213,0.0767 -8.70479,0.21037 -13.36146,0.29708 -12.50288,0.23278 -14.21934,0.4895 -15.59541,2.33262 -0.9471,1.26854 -0.76163,3.87376 0.55771,7.83378 1.1466,3.44149 1.63076,6.11478 2.32437,12.83359 0.39767,3.85201 1.6937,11.57242 3.35319,19.97474 0.77066,3.90197 1.81542,8.93575 10.18652,49.080212 4.23661,20.31722 4.43613,21.40741 4.98771,27.25208 0.23344,2.47386 0.65281,6.52198 0.93189,8.99584 0.98975,8.77279 2.38215,30.96291 2.38215,37.96305 0,8.08693 -1.33554,14.60725 -5.13654,25.07715016 -2.46761,6.79712004 -4.166,10.69009984 -6.28346,14.40264984 -6.22128,10.90782 -10.15143,14.92896 -20.41343,20.88594 -9.08089,5.27135 -10.53364,5.75554 -22.93532,7.64368 -6.55032,0.9973 -11.23368,1.23645 -19.97604,1.02003 z m 14.20799,-15.80988 c 14.65204,-2.38713 22.15817,-5.37885 29.27099,-11.66664 2.84646,-2.5163 4.61438,-4.83452 6.31168,-8.2763598 3.09174,-6.26954 5.01386,-12.09265 8.75549,-26.5250302 l 0.9603,-3.70417 -0.0159,-6.21771 c -0.009,-3.41974 -0.16306,-7.94411 -0.34306,-10.05416 -0.2863,-3.35637 -4.59936,-33.80267 -6.91528,-48.81563 -0.44895,-2.91041 -3.90835,-20.650732 -7.68752,-39.422912 -14.88107,-73.91837 -13.73418,-68.29531 -20.10193,-98.5573 -3.79521,-18.03632 -4.03641,-19.35614 -4.03749,-22.0927 0,-2.16924 0.11266,-3.16058 0.44566,-3.89277 1.1829,-2.6008 3.62511,-4.06966 6.3966,-3.8472 3.9412,0.31637 6.78563,3.19183 8.58779,8.68146 0.61838,1.88367 0.99065,3.73811 3.32264,16.55217 0.93001,5.11038 1.93407,10.24393 2.23125,11.40788 0.75213,2.94577 2.3122,7.36354 3.14135,8.89561 0.86294,1.59452 2.59882,3.15296 3.96925,3.56357 1.37057,0.41063 7.34793,0.39452 28.36153,-0.0764 9.3861,-0.21034 19.98266,-0.44786 23.54792,-0.52782 3.56526,-0.0799 9.1612,-0.20288 12.43542,-0.27318 3.27422,-0.0703 8.81062,-0.18968 12.30312,-0.26527 3.4925,-0.0756 9.14797,-0.19794 12.56771,-0.27183 3.41974,-0.0739 8.71802,-0.19521 11.77396,-0.26956 3.05594,-0.0743 13.95015,-0.30951 24.20937,-0.52261 10.259222,-0.21307 19.174652,-0.45773 19.812082,-0.54366 1.68897,-0.22773 2.33323,-0.60182 2.82641,-1.64108 0.64866,-1.36694 0.34838,-2.45277 -3.46059,-12.51397 -1.84168,-4.86471 -3.49864,-9.26164 -3.68215,-9.77096 -0.18349,-0.50932 -1.55977,-4.14073 -3.05842,-8.06979 -1.49866,-3.92906 -3.050602,-8.03672 -3.448772,-9.12813 -1.61496,-4.42661 -6.12301,-15.59186 -8.06548,-19.97604 -0.19343,-0.43656 -1.15228,-2.69875 -2.13079,-5.02708 -2.14773,-5.11051 -4.26596,-9.38038 -11.02715,-22.22828 -5.65174,-10.7397 -11.06506,-20.58056 -13.2878,-24.15585 -1.38086,-2.2211 -3.72271,-5.24042 -10.73549,-13.84096 -3.43985,-4.21871 -6.75947,-8.43333 -14.458,-18.35616 -2.61247,-3.36725 -5.50577,-6.77069 -6.86401,-8.07421 -2.3619,-2.26679 -13.41268,-11.26424 -18.09067,-14.7293 -2.9623,-2.19422 -13.60273,-8.99935 -18.10856,-11.5814 -5.74053,-3.28962 -27.3046,-13.49108 -36.41365,-17.22649 -4.15652,-1.7045 -14.61161,-4.33703 -28.29234,-7.12386 -7.67993,-1.56443 -10.72232,-2.04613 -19.57917,-3.09991 -6.89853,-0.82079 -7.72218,-0.86423 -15.87499,-0.83709 -4.72943,0.0159 -10.92068,0.16447 -13.75834,0.33049 -7.14957,0.41831 -23.84123,2.05312 -27.51666,2.69502 -3.66504,0.64008 -21.72359,5.20356 -25.78069,6.51486 -4.3616,1.40976 -16.46658,6.50682 -21.71202,9.14234 -4.75419,2.38868 -16.00684,8.49902 -19.3158,10.48874 -5.05926,3.04218 -13.96529,9.28555 -20.3717,14.28107 -8.66048,6.7532 -8.36401,6.44451 -18.96705,19.7489 -3.24726,4.07458 -8.17579,10.2063 -10.95227,13.62604 -5.51402,6.79151 -8.06974,10.2898 -11.21111,15.34583 -2.89145,4.65378 -2.94048,4.7611 -8.82476,19.31458 -8.27963,20.47791 -8.4225,20.87457 -11.95906,33.20453 -1.79491,6.25776 -4.22955,14.27305 -5.41036,17.81175 -2.48938,7.46032 -2.97278,9.37074 -3.6943,14.60039 -0.29112,2.11005 -0.89894,6.51537 -1.35072,9.78958 -0.4518,3.27422 -1.46817,9.88219 -2.25862,14.68438 -1.59329,9.6797 -1.77591,12.46285 -0.93866,14.30621 0.61825,1.3612 2.05719,2.55539 3.81762,3.16828 2.1195,0.73787 10.89041,0.77742 30.87116,0.13919 17.67256,-0.56449 78.57519,-2.44149 94.85313,-2.92333 12.89362,-0.38166 15.00574,-0.50196 16.47555,-0.93845 2.71656,-0.80671 3.6839,-2.28356 4.04664,-6.17804 0.13047,-1.40073 0.42439,-10.04771 0.65315,-19.21553 0.22879,-9.16781 0.52708,-17.46337 0.66286,-18.43458 0.71874,-5.14053 3.56598,-8.15604 7.70094,-8.15604 3.20868,0 6.0961,2.52539 7.36267,6.43951 0.66063,2.04165 0.72067,5.67224 0.3725,22.53236 -0.61211,29.64384 -0.85489,36.37558 -1.81792,50.40313 -2.80041,40.7915 -2.94617,43.23156 -3.17662,53.18125 -0.086,3.71078 -0.32348,13.43961 -0.52781,21.619662 -0.52594,21.0531 -0.18934,30.18464 1.73386,47.03971 1.7185,15.06096 2.02459,16.90614 4.48202,27.01653 2.24435,9.23382 5.79707,18.1839902 9.90113,24.94335016 3.88186,6.39342004 5.42507,8.15941004 12.17948,13.93771984 5.67794,4.85744 8.32097,6.94132 10.19842,8.04098 3.83225,2.24454 12.05664,4.6995 19.97604,5.96273 3.57677,0.57052 14.25477,0.36484 18.70591,-0.36036 z m -86.83522,-314.539022 c -1.51548,-0.31689 -4.0568,-1.72419 -5.38932,-2.98442 -4.72837,-4.47191 -4.92866,-11.9385 -0.43878,-16.3581 5.56527,-5.4782 14.47887,-3.70221 17.93639,3.57372 0.93345,1.96435 0.97843,2.18565 0.98295,4.83666 0.005,2.61433 -0.0486,2.89187 -0.89942,4.70745 -1.15509,2.46472 -3.49999,4.75411 -5.75884,5.62258 -1.52913,0.58793 -4.96353,0.90937 -6.43298,0.60211 z m 98.06848,-3.78169 c -4.59846,-1.46915 -7.64128,-5.55546 -7.68872,-10.32545 -0.0876,-8.80197 9.56781,-14.06929 16.99289,-9.27023 4.57751,2.9586 6.26272,9.05912 3.8398,13.90036 -2.46465,4.92464 -8.0208,7.33211 -13.14397,5.69532 z m -375.66211,178.53009 c 2.04541,-1.25738 4.82528,-6.12899 6.83696,-11.98158 0.99777,-2.90279 1.00039,-2.92184 1.00672,-7.27604 0.003,-2.40109 -0.15071,-7.9375 -0.34264,-12.30312 -0.53382,-12.14105 -0.53189,-22.83677 0.005,-25.16638 0.87432,-3.79711 3.12656,-6.95089 5.95371,-8.33691 0.94062,-0.46114 1.84033,-0.64765 3.4699,-0.71927 2.03113,-0.0893 2.3291,-0.0331 3.88189,0.73128 2.86697,1.41142 5.09987,4.32935 6.44239,8.41891 0.90866,2.76783 1.49453,6.56251 2.82943,18.32549 0.71332,6.28587 1.26667,9.12731 2.32135,11.9203 2.16344,5.72913 4.00502,8.12692 6.60283,8.597 1.47818,0.26749 3.61493,-0.84725 4.66619,-2.4344 1.25942,-1.90135 1.62682,-3.50401 3.50864,-15.30477 0.9637,-6.04327 0.99365,-7.7405 0.5184,-29.36875 -0.2218,-10.09322 -0.31168,-11.62286 -0.79655,-13.55506 -1.31982,-5.25944 -3.40903,-9.06682 -6.58508,-12.00078 -4.65614,-4.30123 -13.91354,-8.99496 -25.19262,-12.77337 -5.58784,-1.87188 -6.50976,-2.04685 -17.4625,-3.31404 -14.10825,-1.63232 -14.84818,-1.67831 -25.00313,-1.55398 -9.20872,0.11274 -9.30251,0.11954 -16.80104,1.21841 -4.14734,0.60777 -8.79078,1.35509 -10.31875,1.66071 -6.7504,1.35019 -30.1177,8.93186 -37.96771,12.31884 -3.05527,1.31823 -4.57895,2.36397 -6.91548,4.74631 -4.33471,4.41962 -6.42639,8.94516 -7.93478,17.16754 -0.84312,4.59594 -0.53181,16.13942 0.70284,26.06146 0.28067,2.25557 0.75716,6.36323 1.05886,9.12812 1.04905,9.61388 2.06893,12.52667 4.85897,13.87732 1.42397,0.68932 2.60433,0.68712 4.03928,-0.007 2.41816,-1.17062 4.47117,-5.10053 6.62365,-12.67918 l 0.93934,-3.30729 0.20558,-7.67291 c 0.19495,-7.27568 0.2485,-7.85787 1.03428,-11.2448 1.67157,-7.20492 2.84149,-9.90801 5.95734,-13.76444 1.46494,-1.81314 3.45147,-3.43347 4.20942,-3.43347 0.21804,0 0.57184,-0.1754 0.7862,-0.38976 0.34329,-0.3433 0.53482,-0.31263 1.6064,0.25715 0.66916,0.35578 1.21664,0.56655 1.21664,0.46834 0,-0.59836 2.51889,2.41869 4.41511,5.28828 4.21313,6.37582 4.39669,7.10877 6.04591,24.14161 1.31443,13.57519 1.85637,17.03361 3.8144,24.34167 0.7018,2.61937 1.59103,6.13995 1.97608,7.82349 0.82313,3.59907 1.82868,5.87343 3.20554,7.25027 2.81219,2.8122 6.3727,2.61184 8.49504,-0.47802 1.75017,-2.54805 2.66174,-6.66083 3.38559,-15.27498 0.22704,-2.7019 0.65767,-6.63096 0.95695,-8.73125 0.82981,-5.82321 0.91138,-9.1603 0.38438,-15.72607 -0.25646,-3.19508 -0.40162,-6.82363 -0.32259,-8.06341 0.34149,-5.35726 2.97513,-9.14149 7.56782,-10.87411 1.19366,-0.45032 1.89611,-0.53761 3.59973,-0.44725 3.33378,0.17679 5.75569,1.68423 7.90827,4.92215 1.80874,2.72073 2.67149,5.64449 3.3311,11.28876 0.99004,8.47164 2.7346,19.76649 3.97997,25.76727 1.31736,6.34778 5.15024,15.5452 8.35744,20.05452 2.22065,3.12224 4.49271,3.91075 6.93778,2.40771 z m 696.372242,-12.96498 c 2.91915,-1.07955 5.15106,-4.32618 6.20829,-9.03081 0.50061,-2.22782 0.55292,-3.49896 0.65495,-15.91495 0.10694,-13.01941 0.0859,-13.76347 -0.59823,-21.16667 -0.96406,-10.43247 -0.75517,-13.34746 1.23788,-17.27409 1.5653,-3.08385 4.41974,-5.45989 7.53364,-6.27097 2.0247,-0.52734 3.15741,-0.50419 5.11323,0.10454 4.34089,1.35101 7.99286,6.40156 9.29492,12.85454 0.53002,2.62665 0.83516,5.74979 1.43505,14.68702 0.59994,8.93829 1.20885,12.38068 3.58833,20.28632 1.51445,5.03158 2.49944,7.23667 3.987988,8.92773 2.48766,2.82615 5.36538,3.23435 7.53139,1.06833 1.66301,-1.66301 2.14495,-3.50117 2.62776,-10.02286 0.21624,-2.92082 0.76113,-9.954 1.21087,-15.62931 0.49506,-6.24761 0.75951,-11.10165 0.67024,-12.30313 -0.16817,-2.26359 -0.6731,-3.84029 -2.37247,-7.40833 -1.98948,-4.17719 -2.40379,-6.56466 -1.6102,-9.27854 1.3993,-4.78533 5.57504,-7.75978 11.87754,-8.46055 4.63445,-0.51533 8.53438,0.7371 11.25591,3.61471 2.44517,2.58543 3.07247,4.50093 5.94095,18.14144 0.81653,3.8829 1.88402,8.2458 2.37218,9.69534 1.10328,3.27613 3.03112,7.04842 4.3924,8.59494 2.34762,2.66703 5.2896,2.72375 7.19105,0.13861 2.30304,-3.1311 4.7039,-13.35584 4.7039,-20.03287 0,-2.64975 -0.75382,-9.50624 -1.43867,-13.08563 -0.72668,-3.79796 -3.78143,-12.47809 -6.06756,-17.24099 -1.82242,-3.79685 -6.20945,-11.11271 -7.83553,-13.06666 -1.52953,-1.83793 -3.14156,-3.06028 -6.12275,-4.64267 -3.0834,-1.63669 -5.94984,-2.73947 -8.64775,-3.32698 -3.01659,-0.6569 -27.629878,-4.63404 -31.835348,-5.14411 -3.54785,-0.43031 -22.32935,-1.21099 -30.65656,-1.27428 -5.95511,-0.0453 -6.19106,-0.0151 -19.44687,2.48028 -12.09328,2.27664 -16.54842,3.41019 -23.28333,5.92416 -9.64473,3.60015 -17.5385999,9.20355 -21.48514989,15.25108 -1.52651001,2.33918 -3.29393001,6.26039 -4.69323001,10.41255 -2.64419,7.846 -2.81768,11.46071 -1.0478,21.82934 1.51587,8.88045 3.35396,16.59509 5.48444001,23.01875 4.17591999,12.5908 6.52303999,16.26362 11.35416989,17.76724 3.38151,1.05244 5.76122,0.35478 7.25821,-2.12788 1.58416,-2.62729 1.65031,-4.4486 0.88016,-24.23832 -0.3651,-9.38218 -0.32266,-15.29183 0.12499,-17.4044 0.74033,-3.49382 2.63197,-5.86843 5.91315,-7.42291 1.6656,-0.78909 1.94241,-0.83725 4.81001,-0.8369 2.70328,0 3.1903,0.0733 4.36563,0.65466 2.6303,1.30095 4.64897,4.19785 5.55191,7.96726 0.22352,0.93305 0.7642,4.67302 1.20155,8.31104 0.72885,6.06303 3.43752,23.44198 4.39182,28.17812 1.40327,6.96442 4.39685,15.95972 6.35677,19.10123 2.41845,3.87646 6.30373,5.19186 10.62017,3.59558 z" id="path73"/>
  </g>
</svg>